{"title":"Srilankan Newly wed couple enjoying honeymoon in beach resort","uid":10060562,"size":108756115,"categoryP":"porn","categoryS":"movie_clips","magnet":"?xt=urn:btih:8b57fc3553fdca92c6e058b9eef3b0f022bf6372&amp;dn=Srilankan+Newly+wed+couple+enjoying+honeymoon+in+beach+resort&amp;tr=udp%3A%2F%2Ftracker.openbittorrent.com%3A80&amp;tr=udp%3A%2F%2Fopen.demonii.com%3A1337&amp;tr=udp%3A%2F%2Ftracker.coppersurfer.tk%3A6969&amp;tr=udp%3A%2F%2Fexodus.desync.com%3A6969","seeders":0,"leechers":1,"uploader":"desiluv89","files":1,"time":1398720428,"description":"General\nComplete name                            : Srilankan Newly wed couple enjoying honeymoon in beach resort.mp4\nFormat                                   : MPEG-4\nFormat profile                           : Base Media\nCodec ID                                 : isom\nFile size                                : 104 MiB\nDuration                                 : 23mn 48s\nOverall bit rate                         : 609 Kbps\nWriting application                      : Lavf53.5.0\n\nVideo\nID                                       : 1\nFormat                                   : AVC\nFormat/Info                              : Advanced Video Codec\nFormat profile                           : &lt;a class=&quot;__cf_email__&quot; href=&quot;/cdn-cgi/l/email-protection&quot; data-cfemail=&quot;eda5848a85ada1dfc3dd&quot;&gt;[email&amp;#160;protected]&lt;/a&gt;&lt;script cf-hash='f9e31' type=&quot;text/javascript&quot;&gt;\n/* &lt;![CDATA[ */!function(){try{var t=&quot;currentScript&quot;in document?document.currentScript:function(){for(var t=document.getElementsByTagName(&quot;script&quot;),e=t.length;e--;)if(t[e].getAttribute(&quot;cf-hash&quot;))return t[e]}();if(t&amp;&amp;t.previousSibling){var e,r,n,i,c=t.previousSibling,a=c.getAttribute(&quot;data-cfemail&quot;);if(a){for(e=&quot;&quot;,r=parseInt(a.substr(0,2),16),n=2;a.length-n;n+=2)i=parseInt(a.substr(n,2),16)^r,e+=String.fromCharCode(i);e=document.createTextNode(e),c.parentNode.replaceChild(e,c)}}}catch(u){}}();/* ]]&gt; */&lt;/script&gt;\nFormat settings, CABAC                   : Yes\nFormat settings, ReFrames                : 4 frames\nCodec ID                                 : avc1\nCodec ID/Info                            : Advanced Video Coding\nDuration                                 : 23mn 47s\nBit rate                                 : 512 Kbps\nWidth                                    : 356 pixels\nHeight                                   : 238 pixels\nDisplay aspect ratio                     : 3:2\nFrame rate mode                          : Variable\nFrame rate                               : 29.854 fps\nMinimum frame rate                       : 15.000 fps\nMaximum frame rate                       : 30.000 fps\nColor space                              : YUV\nChroma subsampling                       : 4:2:0\nBit depth                                : 8 bits\nScan type                                : Progressive\nBits/(Pixel*Frame)                       : 0.202\nStream size                              : 87.2 MiB (84%)\n\nAudio\nID                                       : 2\nFormat                                   : AAC\nFormat/Info                              : Advanced Audio Codec\nFormat profile                           : LC\nCodec ID                                 : 40\nDuration                                 : 23mn 48s\nBit rate mode                            : Constant\nBit rate                                 : 58.9 Kbps\nChannel(s)                               : 2 channels\nChannel positions                        : Front: L R\nSampling rate                            : 44.1 KHz\nCompression mode                         : Lossy\nStream size                              : 10.0 MiB (10%)\n\nScreens:\n","torrent":{"xt":"urn:btih:8b57fc3553fdca92c6e058b9eef3b0f022bf6372","amp;dn":"Srilankan+Newly+wed+couple+enjoying+honeymoon+in+beach+resort","amp;tr":["udp%3A%2F%2Ftracker.openbittorrent.com%3A80","udp%3A%2F%2Fopen.demonii.com%3A1337","udp%3A%2F%2Ftracker.coppersurfer.tk%3A6969","udp%3A%2F%2Fexodus.desync.com%3A6969"],"infoHash":"8b57fc3553fdca92c6e058b9eef3b0f022bf6372","infoHashBuffer":{"type":"Buffer","data":[139,87,252,53,83,253,202,146,198,224,88,185,238,243,176,240,34,191,99,114]},"announce":[],"urlList":[]}}